<svg width="744" height="388" viewBox="0 0 744 388" fill="none" xmlns="http://www.w3.org/2000/svg">
<rect width="744" height="388" fill="#F5F5F5"/>
<rect width="124" height="388" fill="#001F3F"/>
<path d="M47.75 360.119C47.108 360.119 46.5611 359.945 46.1094 359.595C45.6577 359.243 45.3125 358.733 45.0739 358.065C44.8352 357.395 44.7159 356.585 44.7159 355.636C44.7159 354.693 44.8352 353.888 45.0739 353.22C45.3153 352.55 45.6619 352.038 46.1136 351.686C46.5682 351.331 47.1136 351.153 47.75 351.153C48.3864 351.153 48.9304 351.331 49.3821 351.686C49.8366 352.038 50.1832 352.55 50.4219 353.22C50.6634 353.888 50.7841 354.693 50.7841 355.636C50.7841 356.585 50.6648 357.395 50.4261 358.065C50.1875 358.733 49.8423 359.243 49.3906 359.595C48.9389 359.945 48.392 360.119 47.75 360.119ZM47.75 359.182C48.3864 359.182 48.8807 358.875 49.233 358.261C49.5852 357.648 49.7614 356.773 49.7614 355.636C49.7614 354.881 49.6804 354.237 49.5185 353.706C49.3594 353.175 49.1293 352.77 48.8281 352.491C48.5298 352.213 48.1705 352.074 47.75 352.074C47.1193 352.074 46.6264 352.385 46.2713 353.007C45.9162 353.626 45.7386 354.503 45.7386 355.636C45.7386 356.392 45.8182 357.034 45.9773 357.562C46.1364 358.091 46.3651 358.493 46.6634 358.768C46.9645 359.044 47.3267 359.182 47.75 359.182ZM55.25 360.119C54.608 360.119 54.0611 359.945 53.6094 359.595C53.1577 359.243 52.8125 358.733 52.5739 358.065C52.3352 357.395 52.2159 356.585 52.2159 355.636C52.2159 354.693 52.3352 353.888 52.5739 353.22C52.8153 352.55 53.1619 352.038 53.6136 351.686C54.0682 351.331 54.6136 351.153 55.25 351.153C55.8864 351.153 56.4304 351.331 56.8821 351.686C57.3366 352.038 57.6832 352.55 57.9219 353.22C58.1634 353.888 58.2841 354.693 58.2841 355.636C58.2841 356.585 58.1648 357.395 57.9261 358.065C57.6875 358.733 57.3423 359.243 56.8906 359.595C56.4389 359.945 55.892 360.119 55.25 360.119ZM55.25 359.182C55.8864 359.182 56.3807 358.875 56.733 358.261C57.0852 357.648 57.2614 356.773 57.2614 355.636C57.2614 354.881 57.1804 354.237 57.0185 353.706C56.8594 353.175 56.6293 352.77 56.3281 352.491C56.0298 352.213 55.6705 352.074 55.25 352.074C54.6193 352.074 54.1264 352.385 53.7713 353.007C53.4162 353.626 53.2386 354.503 53.2386 355.636C53.2386 356.392 53.3182 357.034 53.4773 357.562C53.6364 358.091 53.8651 358.493 54.1634 358.768C54.4645 359.044 54.8267 359.182 55.25 359.182ZM62.9716 351.273V360H61.9148V352.381H61.8636L59.733 353.795V352.722L61.9148 351.273H62.9716ZM68.4134 353.455V354.307H64.8849V353.455H68.4134ZM65.9418 360V352.551C65.9418 352.176 66.0298 351.864 66.206 351.614C66.3821 351.364 66.6108 351.176 66.892 351.051C67.1733 350.926 67.4702 350.864 67.7827 350.864C68.0298 350.864 68.2315 350.884 68.3878 350.923C68.544 350.963 68.6605 351 68.7372 351.034L68.4474 351.903C68.3963 351.886 68.3253 351.865 68.2344 351.839C68.1463 351.814 68.0298 351.801 67.8849 351.801C67.5526 351.801 67.3125 351.885 67.1648 352.053C67.0199 352.22 66.9474 352.466 66.9474 352.79V360H65.9418ZM72.7546 360.119C72.1921 360.119 71.6907 360.023 71.2504 359.83C70.8129 359.636 70.4648 359.368 70.2063 359.024C69.9506 358.678 69.8114 358.276 69.7887 357.818H70.8626C70.8853 358.099 70.9819 358.342 71.1523 358.547C71.3228 358.749 71.5458 358.905 71.8214 359.016C72.0969 359.126 72.4023 359.182 72.7376 359.182C73.1126 359.182 73.445 359.116 73.7347 358.986C74.0245 358.855 74.2518 358.673 74.4165 358.44C74.5813 358.207 74.6637 357.938 74.6637 357.631C74.6637 357.31 74.5842 357.027 74.4251 356.783C74.266 356.536 74.033 356.342 73.7262 356.203C73.4194 356.064 73.0444 355.994 72.6012 355.994H71.9023V355.057H72.6012C72.9478 355.057 73.2518 354.994 73.5131 354.869C73.7773 354.744 73.9833 354.568 74.131 354.341C74.2816 354.114 74.3569 353.847 74.3569 353.54C74.3569 353.244 74.2915 352.987 74.1609 352.768C74.0302 352.55 73.8455 352.379 73.6069 352.257C73.3711 352.135 73.0927 352.074 72.7717 352.074C72.4705 352.074 72.1864 352.129 71.9194 352.24C71.6552 352.348 71.4393 352.506 71.2717 352.713C71.104 352.918 71.0131 353.165 70.9989 353.455H69.9762C69.9933 352.997 70.131 352.597 70.3896 352.253C70.6481 351.906 70.9862 351.636 71.4038 351.443C71.8242 351.25 72.2859 351.153 72.7887 351.153C73.3285 351.153 73.7915 351.263 74.1779 351.482C74.5643 351.697 74.8612 351.983 75.0685 352.338C75.2759 352.693 75.3796 353.077 75.3796 353.489C75.3796 353.98 75.2504 354.399 74.9918 354.746C74.7362 355.092 74.3881 355.332 73.9478 355.466V355.534C74.4989 355.625 74.9293 355.859 75.239 356.237C75.5487 356.612 75.7035 357.077 75.7035 357.631C75.7035 358.105 75.5742 358.531 75.3157 358.909C75.06 359.284 74.7106 359.58 74.2674 359.795C73.8242 360.011 73.32 360.119 72.7546 360.119ZM80.3782 353.455V354.307H76.8498V353.455H80.3782ZM77.9066 360V352.551C77.9066 352.176 77.9947 351.864 78.1708 351.614C78.3469 351.364 78.5756 351.176 78.8569 351.051C79.1381 350.926 79.435 350.864 79.7475 350.864C79.9947 350.864 80.1964 350.884 80.3526 350.923C80.5089 350.963 80.6254 351 80.7021 351.034L80.4123 351.903C80.3612 351.886 80.2901 351.865 80.1992 351.839C80.1112 351.814 79.9947 351.801 79.8498 351.801C79.5174 351.801 79.2773 351.885 79.1296 352.053C78.9847 352.22 78.9123 352.466 78.9123 352.79V360H77.9066Z" fill="white"/>
<rect x="124" width="124" height="388" fill="#003366"/>
<path d="M166.75 360.119C166.108 360.119 165.561 359.945 165.109 359.595C164.658 359.243 164.313 358.733 164.074 358.065C163.835 357.395 163.716 356.585 163.716 355.636C163.716 354.693 163.835 353.888 164.074 353.22C164.315 352.55 164.662 352.038 165.114 351.686C165.568 351.331 166.114 351.153 166.75 351.153C167.386 351.153 167.93 351.331 168.382 351.686C168.837 352.038 169.183 352.55 169.422 353.22C169.663 353.888 169.784 354.693 169.784 355.636C169.784 356.585 169.665 357.395 169.426 358.065C169.188 358.733 168.842 359.243 168.391 359.595C167.939 359.945 167.392 360.119 166.75 360.119ZM166.75 359.182C167.386 359.182 167.881 358.875 168.233 358.261C168.585 357.648 168.761 356.773 168.761 355.636C168.761 354.881 168.68 354.237 168.518 353.706C168.359 353.175 168.129 352.77 167.828 352.491C167.53 352.213 167.17 352.074 166.75 352.074C166.119 352.074 165.626 352.385 165.271 353.007C164.916 353.626 164.739 354.503 164.739 355.636C164.739 356.392 164.818 357.034 164.977 357.562C165.136 358.091 165.365 358.493 165.663 358.768C165.964 359.044 166.327 359.182 166.75 359.182ZM174.25 360.119C173.608 360.119 173.061 359.945 172.609 359.595C172.158 359.243 171.813 358.733 171.574 358.065C171.335 357.395 171.216 356.585 171.216 355.636C171.216 354.693 171.335 353.888 171.574 353.22C171.815 352.55 172.162 352.038 172.614 351.686C173.068 351.331 173.614 351.153 174.25 351.153C174.886 351.153 175.43 351.331 175.882 351.686C176.337 352.038 176.683 352.55 176.922 353.22C177.163 353.888 177.284 354.693 177.284 355.636C177.284 356.585 177.165 357.395 176.926 358.065C176.688 358.733 176.342 359.243 175.891 359.595C175.439 359.945 174.892 360.119 174.25 360.119ZM174.25 359.182C174.886 359.182 175.381 358.875 175.733 358.261C176.085 357.648 176.261 356.773 176.261 355.636C176.261 354.881 176.18 354.237 176.018 353.706C175.859 353.175 175.629 352.77 175.328 352.491C175.03 352.213 174.67 352.074 174.25 352.074C173.619 352.074 173.126 352.385 172.771 353.007C172.416 353.626 172.239 354.503 172.239 355.636C172.239 356.392 172.318 357.034 172.477 357.562C172.636 358.091 172.865 358.493 173.163 358.768C173.464 359.044 173.827 359.182 174.25 359.182ZM181.852 360.119C181.29 360.119 180.788 360.023 180.348 359.83C179.911 359.636 179.563 359.368 179.304 359.024C179.048 358.678 178.909 358.276 178.886 357.818H179.96C179.983 358.099 180.08 358.342 180.25 358.547C180.42 358.749 180.643 358.905 180.919 359.016C181.195 359.126 181.5 359.182 181.835 359.182C182.21 359.182 182.543 359.116 182.832 358.986C183.122 358.855 183.349 358.673 183.514 358.44C183.679 358.207 183.761 357.938 183.761 357.631C183.761 357.31 183.682 357.027 183.523 356.783C183.364 356.536 183.131 356.342 182.824 356.203C182.517 356.064 182.142 355.994 181.699 355.994H181V355.057H181.699C182.045 355.057 182.349 354.994 182.611 354.869C182.875 354.744 183.081 354.568 183.229 354.341C183.379 354.114 183.455 353.847 183.455 353.54C183.455 353.244 183.389 352.987 183.259 352.768C183.128 352.55 182.943 352.379 182.705 352.257C182.469 352.135 182.19 352.074 181.869 352.074C181.568 352.074 181.284 352.129 181.017 352.24C180.753 352.348 180.537 352.506 180.369 352.713C180.202 352.918 180.111 353.165 180.097 353.455H179.074C179.091 352.997 179.229 352.597 179.487 352.253C179.746 351.906 180.084 351.636 180.501 351.443C180.922 351.25 181.384 351.153 181.886 351.153C182.426 351.153 182.889 351.263 183.276 351.482C183.662 351.697 183.959 351.983 184.166 352.338C184.374 352.693 184.477 353.077 184.477 353.489C184.477 353.98 184.348 354.399 184.089 354.746C183.834 355.092 183.486 355.332 183.045 355.466V355.534C183.597 355.625 184.027 355.859 184.337 356.237C184.646 356.612 184.801 357.077 184.801 357.631C184.801 358.105 184.672 358.531 184.413 358.909C184.158 359.284 183.808 359.58 183.365 359.795C182.922 360.011 182.418 360.119 181.852 360.119ZM189.493 360.119C188.93 360.119 188.429 360.023 187.989 359.83C187.551 359.636 187.203 359.368 186.945 359.024C186.689 358.678 186.55 358.276 186.527 357.818H187.601C187.624 358.099 187.72 358.342 187.891 358.547C188.061 358.749 188.284 358.905 188.56 359.016C188.835 359.126 189.141 359.182 189.476 359.182C189.851 359.182 190.183 359.116 190.473 358.986C190.763 358.855 190.99 358.673 191.155 358.44C191.32 358.207 191.402 357.938 191.402 357.631C191.402 357.31 191.322 357.027 191.163 356.783C191.004 356.536 190.771 356.342 190.464 356.203C190.158 356.064 189.783 355.994 189.339 355.994H188.641V355.057H189.339C189.686 355.057 189.99 354.994 190.251 354.869C190.516 354.744 190.722 354.568 190.869 354.341C191.02 354.114 191.095 353.847 191.095 353.54C191.095 353.244 191.03 352.987 190.899 352.768C190.768 352.55 190.584 352.379 190.345 352.257C190.109 352.135 189.831 352.074 189.51 352.074C189.209 352.074 188.925 352.129 188.658 352.24C188.393 352.348 188.178 352.506 188.01 352.713C187.842 352.918 187.751 353.165 187.737 353.455H186.714C186.732 352.997 186.869 352.597 187.128 352.253C187.386 351.906 187.724 351.636 188.142 351.443C188.563 351.25 189.024 351.153 189.527 351.153C190.067 351.153 190.53 351.263 190.916 351.482C191.303 351.697 191.599 351.983 191.807 352.338C192.014 352.693 192.118 353.077 192.118 353.489C192.118 353.98 191.989 354.399 191.73 354.746C191.474 355.092 191.126 355.332 190.686 355.466V355.534C191.237 355.625 191.668 355.859 191.977 356.237C192.287 356.612 192.442 357.077 192.442 357.631C192.442 358.105 192.313 358.531 192.054 358.909C191.798 359.284 191.449 359.58 191.006 359.795C190.563 360.011 190.058 360.119 189.493 360.119ZM197.082 360.119C196.724 360.114 196.366 360.045 196.009 359.915C195.651 359.784 195.324 359.564 195.028 359.254C194.733 358.942 194.496 358.52 194.317 357.989C194.138 357.455 194.048 356.784 194.048 355.977C194.048 355.205 194.121 354.52 194.266 353.923C194.411 353.324 194.621 352.82 194.896 352.411C195.172 351.999 195.504 351.686 195.893 351.473C196.286 351.26 196.727 351.153 197.219 351.153C197.707 351.153 198.142 351.251 198.523 351.447C198.906 351.641 199.219 351.911 199.46 352.257C199.702 352.604 199.858 353.003 199.929 353.455H198.889C198.793 353.062 198.605 352.737 198.327 352.479C198.048 352.22 197.679 352.091 197.219 352.091C196.543 352.091 196.01 352.385 195.621 352.973C195.234 353.561 195.04 354.386 195.037 355.449H195.105C195.264 355.207 195.453 355.001 195.672 354.831C195.893 354.658 196.138 354.524 196.405 354.43C196.672 354.337 196.955 354.29 197.253 354.29C197.753 354.29 198.21 354.415 198.625 354.665C199.04 354.912 199.372 355.254 199.622 355.692C199.872 356.126 199.997 356.625 199.997 357.188C199.997 357.727 199.876 358.222 199.635 358.67C199.393 359.116 199.054 359.472 198.616 359.736C198.182 359.997 197.67 360.125 197.082 360.119ZM197.082 359.182C197.44 359.182 197.761 359.092 198.045 358.913C198.332 358.734 198.558 358.494 198.723 358.193C198.891 357.892 198.974 357.557 198.974 357.188C198.974 356.827 198.893 356.499 198.732 356.203C198.572 355.905 198.352 355.668 198.071 355.491C197.793 355.315 197.474 355.227 197.116 355.227C196.847 355.227 196.595 355.281 196.362 355.389C196.129 355.494 195.925 355.639 195.749 355.824C195.575 356.009 195.439 356.22 195.339 356.459C195.24 356.695 195.19 356.943 195.19 357.205C195.19 357.551 195.271 357.875 195.433 358.176C195.598 358.477 195.822 358.72 196.107 358.905C196.393 359.089 196.719 359.182 197.082 359.182ZM204.571 360.119C204.213 360.114 203.855 360.045 203.497 359.915C203.139 359.784 202.812 359.564 202.517 359.254C202.221 358.942 201.984 358.52 201.805 357.989C201.626 357.455 201.537 356.784 201.537 355.977C201.537 355.205 201.609 354.52 201.754 353.923C201.899 353.324 202.109 352.82 202.385 352.411C202.66 351.999 202.993 351.686 203.382 351.473C203.774 351.26 204.216 351.153 204.707 351.153C205.196 351.153 205.63 351.251 206.011 351.447C206.395 351.641 206.707 351.911 206.949 352.257C207.19 352.604 207.346 353.003 207.417 353.455H206.377C206.281 353.062 206.093 352.737 205.815 352.479C205.537 352.22 205.167 352.091 204.707 352.091C204.031 352.091 203.498 352.385 203.109 352.973C202.723 353.561 202.528 354.386 202.525 355.449H202.593C202.752 355.207 202.941 355.001 203.16 354.831C203.382 354.658 203.626 354.524 203.893 354.43C204.16 354.337 204.443 354.29 204.741 354.29C205.241 354.29 205.699 354.415 206.113 354.665C206.528 354.912 206.86 355.254 207.11 355.692C207.36 356.126 207.485 356.625 207.485 357.188C207.485 357.727 207.365 358.222 207.123 358.67C206.882 359.116 206.542 359.472 206.105 359.736C205.67 359.997 205.159 360.125 204.571 360.119ZM204.571 359.182C204.929 359.182 205.25 359.092 205.534 358.913C205.821 358.734 206.047 358.494 206.211 358.193C206.379 357.892 206.463 357.557 206.463 357.188C206.463 356.827 206.382 356.499 206.22 356.203C206.061 355.905 205.841 355.668 205.559 355.491C205.281 355.315 204.963 355.227 204.605 355.227C204.335 355.227 204.083 355.281 203.85 355.389C203.618 355.494 203.413 355.639 203.237 355.824C203.064 356.009 202.927 356.22 202.828 356.459C202.728 356.695 202.679 356.943 202.679 357.205C202.679 357.551 202.76 357.875 202.922 358.176C203.086 358.477 203.311 358.72 203.595 358.905C203.882 359.089 204.207 359.182 204.571 359.182Z" fill="white"/>
<rect x="248" width="124" height="388" fill="#0066CC"/>
<path d="M291.75 360.119C291.108 360.119 290.561 359.945 290.109 359.595C289.658 359.243 289.313 358.733 289.074 358.065C288.835 357.395 288.716 356.585 288.716 355.636C288.716 354.693 288.835 353.888 289.074 353.22C289.315 352.55 289.662 352.038 290.114 351.686C290.568 351.331 291.114 351.153 291.75 351.153C292.386 351.153 292.93 351.331 293.382 351.686C293.837 352.038 294.183 352.55 294.422 353.22C294.663 353.888 294.784 354.693 294.784 355.636C294.784 356.585 294.665 357.395 294.426 358.065C294.188 358.733 293.842 359.243 293.391 359.595C292.939 359.945 292.392 360.119 291.75 360.119ZM291.75 359.182C292.386 359.182 292.881 358.875 293.233 358.261C293.585 357.648 293.761 356.773 293.761 355.636C293.761 354.881 293.68 354.237 293.518 353.706C293.359 353.175 293.129 352.77 292.828 352.491C292.53 352.213 292.17 352.074 291.75 352.074C291.119 352.074 290.626 352.385 290.271 353.007C289.916 353.626 289.739 354.503 289.739 355.636C289.739 356.392 289.818 357.034 289.977 357.562C290.136 358.091 290.365 358.493 290.663 358.768C290.964 359.044 291.327 359.182 291.75 359.182ZM299.25 360.119C298.608 360.119 298.061 359.945 297.609 359.595C297.158 359.243 296.813 358.733 296.574 358.065C296.335 357.395 296.216 356.585 296.216 355.636C296.216 354.693 296.335 353.888 296.574 353.22C296.815 352.55 297.162 352.038 297.614 351.686C298.068 351.331 298.614 351.153 299.25 351.153C299.886 351.153 300.43 351.331 300.882 351.686C301.337 352.038 301.683 352.55 301.922 353.22C302.163 353.888 302.284 354.693 302.284 355.636C302.284 356.585 302.165 357.395 301.926 358.065C301.688 358.733 301.342 359.243 300.891 359.595C300.439 359.945 299.892 360.119 299.25 360.119ZM299.25 359.182C299.886 359.182 300.381 358.875 300.733 358.261C301.085 357.648 301.261 356.773 301.261 355.636C301.261 354.881 301.18 354.237 301.018 353.706C300.859 353.175 300.629 352.77 300.328 352.491C300.03 352.213 299.67 352.074 299.25 352.074C298.619 352.074 298.126 352.385 297.771 353.007C297.416 353.626 297.239 354.503 297.239 355.636C297.239 356.392 297.318 357.034 297.477 357.562C297.636 358.091 297.865 358.493 298.163 358.768C298.464 359.044 298.827 359.182 299.25 359.182ZM306.801 360.119C306.443 360.114 306.085 360.045 305.727 359.915C305.369 359.784 305.043 359.564 304.747 359.254C304.452 358.942 304.214 358.52 304.036 357.989C303.857 357.455 303.767 356.784 303.767 355.977C303.767 355.205 303.839 354.52 303.984 353.923C304.129 353.324 304.339 352.82 304.615 352.411C304.891 351.999 305.223 351.686 305.612 351.473C306.004 351.26 306.446 351.153 306.938 351.153C307.426 351.153 307.861 351.251 308.241 351.447C308.625 351.641 308.938 351.911 309.179 352.257C309.42 352.604 309.577 353.003 309.648 353.455H308.608C308.511 353.062 308.324 352.737 308.045 352.479C307.767 352.22 307.398 352.091 306.938 352.091C306.261 352.091 305.729 352.385 305.339 352.973C304.953 353.561 304.759 354.386 304.756 355.449H304.824C304.983 355.207 305.172 355.001 305.391 354.831C305.612 354.658 305.857 354.524 306.124 354.43C306.391 354.337 306.673 354.29 306.972 354.29C307.472 354.29 307.929 354.415 308.344 354.665C308.759 354.912 309.091 355.254 309.341 355.692C309.591 356.126 309.716 356.625 309.716 357.188C309.716 357.727 309.595 358.222 309.354 358.67C309.112 359.116 308.773 359.472 308.335 359.736C307.901 359.997 307.389 360.125 306.801 360.119ZM306.801 359.182C307.159 359.182 307.48 359.092 307.764 358.913C308.051 358.734 308.277 358.494 308.442 358.193C308.609 357.892 308.693 357.557 308.693 357.188C308.693 356.827 308.612 356.499 308.45 356.203C308.291 355.905 308.071 355.668 307.79 355.491C307.511 355.315 307.193 355.227 306.835 355.227C306.565 355.227 306.314 355.281 306.081 355.389C305.848 355.494 305.643 355.639 305.467 355.824C305.294 356.009 305.158 356.22 305.058 356.459C304.959 356.695 304.909 356.943 304.909 357.205C304.909 357.551 304.99 357.875 305.152 358.176C305.317 358.477 305.541 358.72 305.825 358.905C306.112 359.089 306.438 359.182 306.801 359.182ZM314.289 360.119C313.931 360.114 313.574 360.045 313.216 359.915C312.858 359.784 312.531 359.564 312.235 359.254C311.94 358.942 311.703 358.52 311.524 357.989C311.345 357.455 311.255 356.784 311.255 355.977C311.255 355.205 311.328 354.52 311.473 353.923C311.618 353.324 311.828 352.82 312.103 352.411C312.379 351.999 312.711 351.686 313.1 351.473C313.493 351.26 313.934 351.153 314.426 351.153C314.914 351.153 315.349 351.251 315.73 351.447C316.113 351.641 316.426 351.911 316.667 352.257C316.909 352.604 317.065 353.003 317.136 353.455H316.096C316 353.062 315.812 352.737 315.534 352.479C315.255 352.22 314.886 352.091 314.426 352.091C313.75 352.091 313.217 352.385 312.828 352.973C312.441 353.561 312.247 354.386 312.244 355.449H312.312C312.471 355.207 312.66 355.001 312.879 354.831C313.1 354.658 313.345 354.524 313.612 354.43C313.879 354.337 314.162 354.29 314.46 354.29C314.96 354.29 315.417 354.415 315.832 354.665C316.247 354.912 316.579 355.254 316.829 355.692C317.079 356.126 317.204 356.625 317.204 357.188C317.204 357.727 317.083 358.222 316.842 358.67C316.6 359.116 316.261 359.472 315.824 359.736C315.389 359.997 314.877 360.125 314.289 360.119ZM314.289 359.182C314.647 359.182 314.968 359.092 315.252 358.913C315.539 358.734 315.765 358.494 315.93 358.193C316.098 357.892 316.181 357.557 316.181 357.188C316.181 356.827 316.1 356.499 315.939 356.203C315.779 355.905 315.559 355.668 315.278 355.491C315 355.315 314.681 355.227 314.324 355.227C314.054 355.227 313.802 355.281 313.569 355.389C313.336 355.494 313.132 355.639 312.956 355.824C312.782 356.009 312.646 356.22 312.547 356.459C312.447 356.695 312.397 356.943 312.397 357.205C312.397 357.551 312.478 357.875 312.64 358.176C312.805 358.477 313.029 358.72 313.314 358.905C313.6 359.089 313.926 359.182 314.289 359.182ZM321.556 360.136C320.942 360.136 320.414 359.991 319.971 359.702C319.528 359.412 319.187 359.013 318.948 358.504C318.71 357.996 318.59 357.415 318.59 356.761C318.59 356.097 318.712 355.51 318.957 355.001C319.204 354.49 319.548 354.091 319.988 353.804C320.431 353.514 320.948 353.369 321.539 353.369C321.999 353.369 322.414 353.455 322.783 353.625C323.153 353.795 323.455 354.034 323.691 354.341C323.927 354.648 324.073 355.006 324.13 355.415H323.124C323.048 355.116 322.877 354.852 322.613 354.622C322.352 354.389 321.999 354.273 321.556 354.273C321.164 354.273 320.82 354.375 320.525 354.58C320.232 354.781 320.004 355.067 319.839 355.436C319.677 355.803 319.596 356.233 319.596 356.727C319.596 357.233 319.675 357.673 319.835 358.048C319.996 358.423 320.224 358.714 320.516 358.922C320.812 359.129 321.158 359.233 321.556 359.233C321.817 359.233 322.055 359.188 322.268 359.097C322.481 359.006 322.661 358.875 322.809 358.705C322.957 358.534 323.062 358.33 323.124 358.091H324.13C324.073 358.477 323.933 358.825 323.708 359.135C323.487 359.442 323.192 359.686 322.826 359.868C322.462 360.047 322.039 360.136 321.556 360.136ZM328.259 360.136C327.646 360.136 327.117 359.991 326.674 359.702C326.231 359.412 325.89 359.013 325.651 358.504C325.413 357.996 325.293 357.415 325.293 356.761C325.293 356.097 325.415 355.51 325.66 355.001C325.907 354.49 326.251 354.091 326.691 353.804C327.134 353.514 327.651 353.369 328.242 353.369C328.702 353.369 329.117 353.455 329.487 353.625C329.856 353.795 330.158 354.034 330.394 354.341C330.63 354.648 330.776 355.006 330.833 355.415H329.827C329.751 355.116 329.58 354.852 329.316 354.622C329.055 354.389 328.702 354.273 328.259 354.273C327.867 354.273 327.523 354.375 327.228 354.58C326.935 354.781 326.707 355.067 326.542 355.436C326.38 355.803 326.299 356.233 326.299 356.727C326.299 357.233 326.379 357.673 326.538 358.048C326.7 358.423 326.927 358.714 327.219 358.922C327.515 359.129 327.862 359.233 328.259 359.233C328.521 359.233 328.758 359.188 328.971 359.097C329.184 359.006 329.364 358.875 329.512 358.705C329.66 358.534 329.765 358.33 329.827 358.091H330.833C330.776 358.477 330.636 358.825 330.411 359.135C330.19 359.442 329.896 359.686 329.529 359.868C329.165 360.047 328.742 360.136 328.259 360.136Z" fill="black"/>
<rect x="372" width="124" height="388" fill="#007FFF"/>
<path d="M420.75 360.119C420.108 360.119 419.561 359.945 419.109 359.595C418.658 359.243 418.313 358.733 418.074 358.065C417.835 357.395 417.716 356.585 417.716 355.636C417.716 354.693 417.835 353.888 418.074 353.22C418.315 352.55 418.662 352.038 419.114 351.686C419.568 351.331 420.114 351.153 420.75 351.153C421.386 351.153 421.93 351.331 422.382 351.686C422.837 352.038 423.183 352.55 423.422 353.22C423.663 353.888 423.784 354.693 423.784 355.636C423.784 356.585 423.665 357.395 423.426 358.065C423.188 358.733 422.842 359.243 422.391 359.595C421.939 359.945 421.392 360.119 420.75 360.119ZM420.75 359.182C421.386 359.182 421.881 358.875 422.233 358.261C422.585 357.648 422.761 356.773 422.761 355.636C422.761 354.881 422.68 354.237 422.518 353.706C422.359 353.175 422.129 352.77 421.828 352.491C421.53 352.213 421.17 352.074 420.75 352.074C420.119 352.074 419.626 352.385 419.271 353.007C418.916 353.626 418.739 354.503 418.739 355.636C418.739 356.392 418.818 357.034 418.977 357.562C419.136 358.091 419.365 358.493 419.663 358.768C419.964 359.044 420.327 359.182 420.75 359.182ZM428.25 360.119C427.608 360.119 427.061 359.945 426.609 359.595C426.158 359.243 425.813 358.733 425.574 358.065C425.335 357.395 425.216 356.585 425.216 355.636C425.216 354.693 425.335 353.888 425.574 353.22C425.815 352.55 426.162 352.038 426.614 351.686C427.068 351.331 427.614 351.153 428.25 351.153C428.886 351.153 429.43 351.331 429.882 351.686C430.337 352.038 430.683 352.55 430.922 353.22C431.163 353.888 431.284 354.693 431.284 355.636C431.284 356.585 431.165 357.395 430.926 358.065C430.688 358.733 430.342 359.243 429.891 359.595C429.439 359.945 428.892 360.119 428.25 360.119ZM428.25 359.182C428.886 359.182 429.381 358.875 429.733 358.261C430.085 357.648 430.261 356.773 430.261 355.636C430.261 354.881 430.18 354.237 430.018 353.706C429.859 353.175 429.629 352.77 429.328 352.491C429.03 352.213 428.67 352.074 428.25 352.074C427.619 352.074 427.126 352.385 426.771 353.007C426.416 353.626 426.239 354.503 426.239 355.636C426.239 356.392 426.318 357.034 426.477 357.562C426.636 358.091 426.865 358.493 427.163 358.768C427.464 359.044 427.827 359.182 428.25 359.182ZM432.942 360L436.845 352.278V352.21H432.345V351.273H437.936V352.261L434.05 360H432.942ZM442.456 353.455V354.307H438.928V353.455H442.456ZM439.985 360V352.551C439.985 352.176 440.073 351.864 440.249 351.614C440.425 351.364 440.654 351.176 440.935 351.051C441.216 350.926 441.513 350.864 441.826 350.864C442.073 350.864 442.275 350.884 442.431 350.923C442.587 350.963 442.703 351 442.78 351.034L442.49 351.903C442.439 351.886 442.368 351.865 442.277 351.839C442.189 351.814 442.073 351.801 441.928 351.801C441.596 351.801 441.355 351.885 441.208 352.053C441.063 352.22 440.99 352.466 440.99 352.79V360H439.985ZM446.781 353.455V354.307H443.252V353.455H446.781ZM444.309 360V352.551C444.309 352.176 444.397 351.864 444.573 351.614C444.749 351.364 444.978 351.176 445.259 351.051C445.54 350.926 445.837 350.864 446.15 350.864C446.397 350.864 446.599 350.884 446.755 350.923C446.911 350.963 447.028 351 447.104 351.034L446.815 351.903C446.763 351.886 446.692 351.865 446.602 351.839C446.513 351.814 446.397 351.801 446.252 351.801C445.92 351.801 445.68 351.885 445.532 352.053C445.387 352.22 445.315 352.466 445.315 352.79V360H444.309ZM451.105 353.455V354.307H447.576V353.455H451.105ZM448.633 360V352.551C448.633 352.176 448.721 351.864 448.897 351.614C449.074 351.364 449.302 351.176 449.583 351.051C449.865 350.926 450.162 350.864 450.474 350.864C450.721 350.864 450.923 350.884 451.079 350.923C451.235 350.963 451.352 351 451.429 351.034L451.139 351.903C451.088 351.886 451.017 351.865 450.926 351.839C450.838 351.814 450.721 351.801 450.576 351.801C450.244 351.801 450.004 351.885 449.856 352.053C449.711 352.22 449.639 352.466 449.639 352.79V360H448.633Z" fill="black"/>
<rect x="496" width="124" height="388" fill="#6699A6"/>
<path d="M538.801 360.119C538.443 360.114 538.085 360.045 537.727 359.915C537.369 359.784 537.043 359.564 536.747 359.254C536.452 358.942 536.214 358.52 536.036 357.989C535.857 357.455 535.767 356.784 535.767 355.977C535.767 355.205 535.839 354.52 535.984 353.923C536.129 353.324 536.339 352.82 536.615 352.411C536.891 351.999 537.223 351.686 537.612 351.473C538.004 351.26 538.446 351.153 538.938 351.153C539.426 351.153 539.861 351.251 540.241 351.447C540.625 351.641 540.938 351.911 541.179 352.257C541.42 352.604 541.577 353.003 541.648 353.455H540.608C540.511 353.062 540.324 352.737 540.045 352.479C539.767 352.22 539.398 352.091 538.938 352.091C538.261 352.091 537.729 352.385 537.339 352.973C536.953 353.561 536.759 354.386 536.756 355.449H536.824C536.983 355.207 537.172 355.001 537.391 354.831C537.612 354.658 537.857 354.524 538.124 354.43C538.391 354.337 538.673 354.29 538.972 354.29C539.472 354.29 539.929 354.415 540.344 354.665C540.759 354.912 541.091 355.254 541.341 355.692C541.591 356.126 541.716 356.625 541.716 357.188C541.716 357.727 541.595 358.222 541.354 358.67C541.112 359.116 540.773 359.472 540.335 359.736C539.901 359.997 539.389 360.125 538.801 360.119ZM538.801 359.182C539.159 359.182 539.48 359.092 539.764 358.913C540.051 358.734 540.277 358.494 540.442 358.193C540.609 357.892 540.693 357.557 540.693 357.188C540.693 356.827 540.612 356.499 540.45 356.203C540.291 355.905 540.071 355.668 539.79 355.491C539.511 355.315 539.193 355.227 538.835 355.227C538.565 355.227 538.314 355.281 538.081 355.389C537.848 355.494 537.643 355.639 537.467 355.824C537.294 356.009 537.158 356.22 537.058 356.459C536.959 356.695 536.909 356.943 536.909 357.205C536.909 357.551 536.99 357.875 537.152 358.176C537.317 358.477 537.541 358.72 537.825 358.905C538.112 359.089 538.438 359.182 538.801 359.182ZM546.289 360.119C545.931 360.114 545.574 360.045 545.216 359.915C544.858 359.784 544.531 359.564 544.235 359.254C543.94 358.942 543.703 358.52 543.524 357.989C543.345 357.455 543.255 356.784 543.255 355.977C543.255 355.205 543.328 354.52 543.473 353.923C543.618 353.324 543.828 352.82 544.103 352.411C544.379 351.999 544.711 351.686 545.1 351.473C545.493 351.26 545.934 351.153 546.426 351.153C546.914 351.153 547.349 351.251 547.73 351.447C548.113 351.641 548.426 351.911 548.667 352.257C548.909 352.604 549.065 353.003 549.136 353.455H548.096C548 353.062 547.812 352.737 547.534 352.479C547.255 352.22 546.886 352.091 546.426 352.091C545.75 352.091 545.217 352.385 544.828 352.973C544.441 353.561 544.247 354.386 544.244 355.449H544.312C544.471 355.207 544.66 355.001 544.879 354.831C545.1 354.658 545.345 354.524 545.612 354.43C545.879 354.337 546.162 354.29 546.46 354.29C546.96 354.29 547.417 354.415 547.832 354.665C548.247 354.912 548.579 355.254 548.829 355.692C549.079 356.126 549.204 356.625 549.204 357.188C549.204 357.727 549.083 358.222 548.842 358.67C548.6 359.116 548.261 359.472 547.824 359.736C547.389 359.997 546.877 360.125 546.289 360.119ZM546.289 359.182C546.647 359.182 546.968 359.092 547.252 358.913C547.539 358.734 547.765 358.494 547.93 358.193C548.098 357.892 548.181 357.557 548.181 357.188C548.181 356.827 548.1 356.499 547.939 356.203C547.779 355.905 547.559 355.668 547.278 355.491C547 355.315 546.681 355.227 546.324 355.227C546.054 355.227 545.802 355.281 545.569 355.389C545.336 355.494 545.132 355.639 544.956 355.824C544.782 356.009 544.646 356.22 544.547 356.459C544.447 356.695 544.397 356.943 544.397 357.205C544.397 357.551 544.478 357.875 544.64 358.176C544.805 358.477 545.029 358.72 545.314 358.905C545.6 359.089 545.926 359.182 546.289 359.182ZM553.658 351.153C554.016 351.156 554.374 351.224 554.732 351.358C555.09 351.491 555.417 351.713 555.712 352.023C556.008 352.33 556.245 352.749 556.424 353.28C556.603 353.811 556.692 354.477 556.692 355.278C556.692 356.054 556.619 356.743 556.471 357.345C556.326 357.945 556.116 358.45 555.84 358.862C555.567 359.274 555.235 359.587 554.843 359.8C554.454 360.013 554.013 360.119 553.522 360.119C553.033 360.119 552.597 360.023 552.214 359.83C551.833 359.634 551.521 359.362 551.276 359.016C551.035 358.666 550.88 358.261 550.812 357.801H551.852C551.945 358.202 552.131 358.533 552.41 358.794C552.691 359.053 553.062 359.182 553.522 359.182C554.195 359.182 554.727 358.888 555.116 358.3C555.508 357.712 555.704 356.881 555.704 355.807H555.636C555.477 356.045 555.288 356.251 555.069 356.425C554.85 356.598 554.607 356.732 554.34 356.825C554.073 356.919 553.789 356.966 553.488 356.966C552.988 356.966 552.529 356.842 552.112 356.595C551.697 356.345 551.364 356.003 551.114 355.568C550.867 355.131 550.744 354.631 550.744 354.068C550.744 353.534 550.863 353.045 551.102 352.602C551.343 352.156 551.681 351.801 552.116 351.537C552.553 351.273 553.067 351.145 553.658 351.153ZM553.658 352.091C553.3 352.091 552.978 352.18 552.691 352.359C552.407 352.536 552.181 352.774 552.013 353.075C551.849 353.374 551.766 353.705 551.766 354.068C551.766 354.432 551.846 354.763 552.005 355.061C552.167 355.357 552.387 355.592 552.665 355.768C552.947 355.942 553.266 356.028 553.624 356.028C553.894 356.028 554.146 355.976 554.379 355.871C554.612 355.763 554.815 355.616 554.988 355.432C555.164 355.244 555.302 355.033 555.401 354.797C555.501 354.558 555.55 354.31 555.55 354.051C555.55 353.71 555.468 353.391 555.303 353.092C555.141 352.794 554.917 352.553 554.63 352.368C554.346 352.183 554.022 352.091 553.658 352.091ZM561.147 351.153C561.505 351.156 561.863 351.224 562.221 351.358C562.578 351.491 562.905 351.713 563.201 352.023C563.496 352.33 563.733 352.749 563.912 353.28C564.091 353.811 564.181 354.477 564.181 355.278C564.181 356.054 564.107 356.743 563.959 357.345C563.814 357.945 563.604 358.45 563.328 358.862C563.056 359.274 562.723 359.587 562.331 359.8C561.942 360.013 561.502 360.119 561.01 360.119C560.522 360.119 560.086 360.023 559.702 359.83C559.321 359.634 559.009 359.362 558.765 359.016C558.523 358.666 558.368 358.261 558.3 357.801H559.34C559.434 358.202 559.62 358.533 559.898 358.794C560.179 359.053 560.55 359.182 561.01 359.182C561.684 359.182 562.215 358.888 562.604 358.3C562.996 357.712 563.192 356.881 563.192 355.807H563.124C562.965 356.045 562.776 356.251 562.557 356.425C562.338 356.598 562.096 356.732 561.828 356.825C561.561 356.919 561.277 356.966 560.976 356.966C560.476 356.966 560.017 356.842 559.6 356.595C559.185 356.345 558.853 356.003 558.603 355.568C558.355 355.131 558.232 354.631 558.232 354.068C558.232 353.534 558.351 353.045 558.59 352.602C558.831 352.156 559.169 351.801 559.604 351.537C560.042 351.273 560.556 351.145 561.147 351.153ZM561.147 352.091C560.789 352.091 560.466 352.18 560.179 352.359C559.895 352.536 559.669 352.774 559.502 353.075C559.337 353.374 559.255 353.705 559.255 354.068C559.255 354.432 559.334 354.763 559.493 355.061C559.655 355.357 559.875 355.592 560.154 355.768C560.435 355.942 560.755 356.028 561.113 356.028C561.382 356.028 561.634 355.976 561.867 355.871C562.1 355.763 562.303 355.616 562.476 355.432C562.652 355.244 562.79 355.033 562.89 354.797C562.989 354.558 563.039 354.31 563.039 354.051C563.039 353.71 562.956 353.391 562.792 353.092C562.63 352.794 562.405 352.553 562.118 352.368C561.834 352.183 561.51 352.091 561.147 352.091ZM567.8 360.153C567.385 360.153 567.009 360.075 566.67 359.919C566.332 359.76 566.064 359.531 565.865 359.233C565.666 358.932 565.567 358.568 565.567 358.142C565.567 357.767 565.641 357.463 565.788 357.23C565.936 356.994 566.134 356.81 566.381 356.676C566.628 356.543 566.901 356.443 567.199 356.378C567.5 356.31 567.803 356.256 568.107 356.216C568.504 356.165 568.827 356.126 569.074 356.101C569.324 356.072 569.506 356.026 569.619 355.96C569.736 355.895 569.794 355.781 569.794 355.619V355.585C569.794 355.165 569.679 354.838 569.449 354.605C569.222 354.372 568.876 354.256 568.413 354.256C567.933 354.256 567.557 354.361 567.284 354.571C567.011 354.781 566.82 355.006 566.709 355.244L565.754 354.903C565.925 354.506 566.152 354.196 566.436 353.974C566.723 353.75 567.036 353.594 567.374 353.506C567.714 353.415 568.05 353.369 568.379 353.369C568.589 353.369 568.831 353.395 569.104 353.446C569.379 353.494 569.645 353.595 569.901 353.749C570.159 353.902 570.374 354.134 570.544 354.443C570.714 354.753 570.8 355.168 570.8 355.688V360H569.794V359.114H569.743C569.675 359.256 569.561 359.408 569.402 359.57C569.243 359.732 569.031 359.869 568.767 359.983C568.503 360.097 568.18 360.153 567.8 360.153ZM567.953 359.25C568.351 359.25 568.686 359.172 568.959 359.016C569.234 358.859 569.442 358.658 569.581 358.411C569.723 358.163 569.794 357.903 569.794 357.631V356.71C569.751 356.761 569.658 356.808 569.513 356.851C569.371 356.891 569.206 356.926 569.018 356.957C568.834 356.986 568.653 357.011 568.477 357.034C568.304 357.054 568.163 357.071 568.055 357.085C567.794 357.119 567.55 357.175 567.322 357.251C567.098 357.325 566.916 357.437 566.777 357.588C566.641 357.736 566.572 357.937 566.572 358.193C566.572 358.543 566.702 358.807 566.96 358.986C567.222 359.162 567.553 359.25 567.953 359.25ZM575.516 360.119C575.158 360.114 574.8 360.045 574.442 359.915C574.084 359.784 573.757 359.564 573.462 359.254C573.167 358.942 572.929 358.52 572.75 357.989C572.571 357.455 572.482 356.784 572.482 355.977C572.482 355.205 572.554 354.52 572.699 353.923C572.844 353.324 573.054 352.82 573.33 352.411C573.605 351.999 573.938 351.686 574.327 351.473C574.719 351.26 575.161 351.153 575.652 351.153C576.141 351.153 576.576 351.251 576.956 351.447C577.34 351.641 577.652 351.911 577.894 352.257C578.135 352.604 578.292 353.003 578.363 353.455H577.323C577.226 353.062 577.039 352.737 576.76 352.479C576.482 352.22 576.113 352.091 575.652 352.091C574.976 352.091 574.444 352.385 574.054 352.973C573.668 353.561 573.473 354.386 573.471 355.449H573.539C573.698 355.207 573.887 355.001 574.105 354.831C574.327 354.658 574.571 354.524 574.838 354.43C575.105 354.337 575.388 354.29 575.686 354.29C576.186 354.29 576.644 354.415 577.059 354.665C577.473 354.912 577.806 355.254 578.056 355.692C578.306 356.126 578.431 356.625 578.431 357.188C578.431 357.727 578.31 358.222 578.069 358.67C577.827 359.116 577.488 359.472 577.05 359.736C576.615 359.997 576.104 360.125 575.516 360.119ZM575.516 359.182C575.874 359.182 576.195 359.092 576.479 358.913C576.766 358.734 576.992 358.494 577.157 358.193C577.324 357.892 577.408 357.557 577.408 357.188C577.408 356.827 577.327 356.499 577.165 356.203C577.006 355.905 576.786 355.668 576.505 355.491C576.226 355.315 575.908 355.227 575.55 355.227C575.28 355.227 575.029 355.281 574.796 355.389C574.563 355.494 574.358 355.639 574.182 355.824C574.009 356.009 573.873 356.22 573.773 356.459C573.674 356.695 573.624 356.943 573.624 357.205C573.624 357.551 573.705 357.875 573.867 358.176C574.032 358.477 574.256 358.72 574.54 358.905C574.827 359.089 575.152 359.182 575.516 359.182Z" fill="black"/>
<rect x="620" width="124" height="388" fill="#D3D3D3"/>
<path d="M668.835 353.455V354.307H665.307V353.455H668.835ZM666.364 360V352.551C666.364 352.176 666.452 351.864 666.628 351.614C666.804 351.364 667.033 351.176 667.314 351.051C667.595 350.926 667.892 350.864 668.205 350.864C668.452 350.864 668.653 350.884 668.81 350.923C668.966 350.963 669.082 351 669.159 351.034L668.869 351.903C668.818 351.886 668.747 351.865 668.656 351.839C668.568 351.814 668.452 351.801 668.307 351.801C667.974 351.801 667.734 351.885 667.587 352.053C667.442 352.22 667.369 352.466 667.369 352.79V360H666.364ZM672.955 360.119C672.455 360.119 672.005 360.02 671.604 359.821C671.203 359.622 670.882 359.349 670.641 359.003C670.4 358.656 670.267 358.261 670.245 357.818H671.267C671.307 358.213 671.486 358.54 671.804 358.798C672.125 359.054 672.509 359.182 672.955 359.182C673.313 359.182 673.631 359.098 673.909 358.93C674.191 358.763 674.411 358.533 674.57 358.24C674.732 357.945 674.813 357.611 674.813 357.239C674.813 356.858 674.729 356.518 674.561 356.22C674.397 355.919 674.169 355.682 673.88 355.509C673.59 355.335 673.259 355.247 672.887 355.244C672.62 355.241 672.346 355.283 672.064 355.368C671.783 355.45 671.551 355.557 671.37 355.688L670.381 355.568L670.909 351.273H675.444V352.21H671.796L671.489 354.784H671.54C671.719 354.642 671.944 354.524 672.213 354.43C672.483 354.337 672.765 354.29 673.057 354.29C673.591 354.29 674.067 354.418 674.485 354.673C674.905 354.926 675.235 355.273 675.473 355.713C675.715 356.153 675.836 356.656 675.836 357.222C675.836 357.778 675.711 358.276 675.461 358.713C675.213 359.148 674.873 359.491 674.438 359.744C674.003 359.994 673.509 360.119 672.955 360.119ZM680.46 353.455V354.307H676.932V353.455H680.46ZM677.989 360V352.551C677.989 352.176 678.077 351.864 678.253 351.614C678.429 351.364 678.658 351.176 678.939 351.051C679.22 350.926 679.517 350.864 679.83 350.864C680.077 350.864 680.278 350.884 680.435 350.923C680.591 350.963 680.707 351 680.784 351.034L680.494 351.903C680.443 351.886 680.372 351.865 680.281 351.839C680.193 351.814 680.077 351.801 679.932 351.801C679.599 351.801 679.359 351.885 679.212 352.053C679.067 352.22 678.994 352.466 678.994 352.79V360H677.989ZM684.58 360.119C684.08 360.119 683.63 360.02 683.229 359.821C682.828 359.622 682.507 359.349 682.266 359.003C682.025 358.656 681.892 358.261 681.87 357.818H682.892C682.932 358.213 683.111 358.54 683.429 358.798C683.75 359.054 684.134 359.182 684.58 359.182C684.938 359.182 685.256 359.098 685.534 358.93C685.816 358.763 686.036 358.533 686.195 358.24C686.357 357.945 686.438 357.611 686.438 357.239C686.438 356.858 686.354 356.518 686.186 356.22C686.022 355.919 685.794 355.682 685.505 355.509C685.215 355.335 684.884 355.247 684.512 355.244C684.245 355.241 683.971 355.283 683.689 355.368C683.408 355.45 683.176 355.557 682.995 355.688L682.006 355.568L682.534 351.273H687.069V352.21H683.421L683.114 354.784H683.165C683.344 354.642 683.569 354.524 683.838 354.43C684.108 354.337 684.39 354.29 684.682 354.29C685.216 354.29 685.692 354.418 686.11 354.673C686.53 354.926 686.86 355.273 687.098 355.713C687.34 356.153 687.461 356.656 687.461 357.222C687.461 357.778 687.336 358.276 687.086 358.713C686.838 359.148 686.498 359.491 686.063 359.744C685.628 359.994 685.134 360.119 684.58 360.119ZM692.085 353.455V354.307H688.557V353.455H692.085ZM689.614 360V352.551C689.614 352.176 689.702 351.864 689.878 351.614C690.054 351.364 690.283 351.176 690.564 351.051C690.845 350.926 691.142 350.864 691.455 350.864C691.702 350.864 691.903 350.884 692.06 350.923C692.216 350.963 692.332 351 692.409 351.034L692.119 351.903C692.068 351.886 691.997 351.865 691.906 351.839C691.818 351.814 691.702 351.801 691.557 351.801C691.224 351.801 690.984 351.885 690.837 352.053C690.692 352.22 690.619 352.466 690.619 352.79V360H689.614ZM696.205 360.119C695.705 360.119 695.255 360.02 694.854 359.821C694.453 359.622 694.132 359.349 693.891 359.003C693.65 358.656 693.517 358.261 693.495 357.818H694.517C694.557 358.213 694.736 358.54 695.054 358.798C695.375 359.054 695.759 359.182 696.205 359.182C696.563 359.182 696.881 359.098 697.159 358.93C697.441 358.763 697.661 358.533 697.82 358.24C697.982 357.945 698.063 357.611 698.063 357.239C698.063 356.858 697.979 356.518 697.811 356.22C697.647 355.919 697.419 355.682 697.13 355.509C696.84 355.335 696.509 355.247 696.137 355.244C695.87 355.241 695.596 355.283 695.314 355.368C695.033 355.45 694.801 355.557 694.62 355.688L693.631 355.568L694.159 351.273H698.694V352.21H695.046L694.739 354.784H694.79C694.969 354.642 695.194 354.524 695.463 354.43C695.733 354.337 696.015 354.29 696.307 354.29C696.841 354.29 697.317 354.418 697.735 354.673C698.155 354.926 698.485 355.273 698.723 355.713C698.965 356.153 699.086 356.656 699.086 357.222C699.086 357.778 698.961 358.276 698.711 358.713C698.463 359.148 698.123 359.491 697.688 359.744C697.253 359.994 696.759 360.119 696.205 360.119Z" fill="black"/>
</svg>
