<svg width="757" height="107" viewBox="0 0 757 107" fill="none" xmlns="http://www.w3.org/2000/svg">
<path d="M84.992 98L54.912 62.16H68.48L98.688 97.872V98H84.992ZM7.168 98V5.96799H83.968C86.784 5.96799 89.344 6.69333 91.648 8.144C94.0373 9.50933 95.9147 11.344 97.28 13.648C98.6453 15.952 99.328 18.512 99.328 21.328V48.336C99.328 51.152 98.6453 53.712 97.28 56.016C95.9147 58.32 94.0373 60.1973 91.648 61.648C89.344 63.0133 86.784 63.696 83.968 63.696H17.536V98H7.168ZM22.528 53.2H83.968C85.3333 53.2 86.4853 52.7307 87.424 51.792C88.448 50.8533 88.96 49.7013 88.96 48.336V21.328C88.96 19.9627 88.448 18.8107 87.424 17.872C86.4853 16.848 85.3333 16.336 83.968 16.336H22.528C21.1627 16.336 19.968 16.848 18.944 17.872C18.0053 18.8107 17.536 19.9627 17.536 21.328V48.336C17.536 49.7013 18.0053 50.8533 18.944 51.792C19.968 52.7307 21.1627 53.2 22.528 53.2ZM737.573 98V5.84H748.069V98H737.573Z" fill="#0066CC"/>
<path d="M127.897 98C125.081 98 122.478 97.3173 120.089 95.952C117.785 94.5867 115.95 92.752 114.585 90.448C113.22 88.0587 112.537 85.456 112.537 82.64V5.84H122.905V82.64C122.905 84.0053 123.374 85.2 124.313 86.224C125.337 87.1627 126.532 87.632 127.897 87.632H189.337C190.702 87.632 191.854 87.1627 192.793 86.224C193.817 85.2 194.329 84.0053 194.329 82.64V5.84H204.697V82.64C204.697 85.456 204.014 88.0587 202.649 90.448C201.284 92.752 199.406 94.5867 197.017 95.952C194.713 97.3173 192.153 98 189.337 98H127.897ZM533.793 98V5.96799H610.593C613.409 5.96799 615.969 6.69333 618.273 8.144C620.662 9.50933 622.54 11.344 623.905 13.648C625.27 15.952 625.953 18.512 625.953 21.328V48.336C625.953 51.152 625.27 53.712 623.905 56.016C622.54 58.32 620.662 60.1973 618.273 61.648C615.969 63.0133 613.409 63.696 610.593 63.696H544.161V98H533.793ZM549.153 53.2H610.593C611.958 53.2 613.11 52.7307 614.049 51.792C615.073 50.8533 615.585 49.7013 615.585 48.336V21.328C615.585 19.9627 615.073 18.8107 614.049 17.872C613.11 16.848 611.958 16.336 610.593 16.336H549.153C547.788 16.336 546.593 16.848 545.569 17.872C544.63 18.8107 544.161 19.9627 544.161 21.328V48.336C544.161 49.7013 544.63 50.8533 545.569 51.792C546.593 52.7307 547.788 53.2 549.153 53.2Z" fill="#6699A6"/>
<path d="M233.897 98C231.081 98 228.478 97.3173 226.089 95.952C223.785 94.5867 221.95 92.752 220.585 90.448C219.22 88.0587 218.537 85.456 218.537 82.64V21.2C218.537 18.384 219.22 15.824 220.585 13.52C221.95 11.1307 223.785 9.25333 226.089 7.88799C228.478 6.52266 231.081 5.84 233.897 5.84H295.337C298.153 5.84 300.713 6.52266 303.017 7.88799C305.406 9.25333 307.284 11.1307 308.649 13.52C310.014 15.824 310.697 18.384 310.697 21.2V82.64C310.697 85.456 310.014 88.0587 308.649 90.448C307.284 92.752 305.406 94.5867 303.017 95.952C300.713 97.3173 298.153 98 295.337 98H233.897ZM233.897 87.632H295.337C296.702 87.632 297.854 87.1627 298.793 86.224C299.817 85.2 300.329 84.0053 300.329 82.64V21.2C300.329 19.8347 299.817 18.6827 298.793 17.744C297.854 16.72 296.702 16.208 295.337 16.208H233.897C232.532 16.208 231.337 16.72 230.313 17.744C229.374 18.6827 228.905 19.8347 228.905 21.2V82.64C228.905 84.0053 229.374 85.2 230.313 86.224C231.337 87.1627 232.532 87.632 233.897 87.632ZM635.043 98V5.96799H711.843C714.659 5.96799 717.219 6.69333 719.523 8.144C721.912 9.50933 723.79 11.344 725.155 13.648C726.52 15.952 727.203 18.512 727.203 21.328V48.336C727.203 51.152 726.52 53.712 725.155 56.016C723.79 58.32 721.912 60.1973 719.523 61.648C717.219 63.0133 714.659 63.696 711.843 63.696H645.411V98H635.043ZM650.403 53.2H711.843C713.208 53.2 714.36 52.7307 715.299 51.792C716.323 50.8533 716.835 49.7013 716.835 48.336V21.328C716.835 19.9627 716.323 18.8107 715.299 17.872C714.36 16.848 713.208 16.336 711.843 16.336H650.403C649.038 16.336 647.843 16.848 646.819 17.872C645.88 18.8107 645.411 19.9627 645.411 21.328V48.336C645.411 49.7013 645.88 50.8533 646.819 51.792C647.843 52.7307 649.038 53.2 650.403 53.2Z" fill="#003366"/>
<path d="M324.921 98V5.84H335.417V46.672H365.113L399.417 5.84H412.729V5.96799L374.201 51.92L412.857 97.872V98H399.417L365.113 57.168H335.417V98H324.921Z" fill="#D3D3D3"/>
<path d="M427.049 98V21.2C427.049 18.384 427.732 15.824 429.097 13.52C430.462 11.1307 432.297 9.25333 434.601 7.88799C436.99 6.52266 439.593 5.84 442.409 5.84H503.849C506.665 5.84 509.225 6.52266 511.529 7.88799C513.918 9.25333 515.796 11.1307 517.161 13.52C518.526 15.824 519.209 18.384 519.209 21.2V98H508.841V64.336H437.417V98H427.049ZM437.417 53.968H508.841V21.2C508.841 19.8347 508.329 18.6827 507.305 17.744C506.366 16.72 505.214 16.208 503.849 16.208H442.409C441.044 16.208 439.849 16.72 438.825 17.744C437.886 18.6827 437.417 19.8347 437.417 21.2V53.968Z" fill="#007FFF"/>
</svg>
